# xmcd
#
# Track frame offsets:
#	150
#	23541
#	45306
#	66887
#	94028
#	114351
#	137650
#	157846
#	181752
#	213382
#	237083
#	264212
#
# Disc length: 3754 seconds
# Revision: 0
# Processed by: cddbd v1.5.2PL0 Copyright (c) Steve Scherf et al.
# Submitted via: dBpowerAMP V12.0
#
DISCID=890ea80c
DTITLE=Riff Riders - Hit The Road
DYEAR=2015
DGENRE=Blues
TTITLE0=Hit The Road
TTITLE1=Bounce Back
TTITLE2=Back Door Kenny
TTITLE3=Cut Me Down 
TTITLE4=Rumors
TTITLE5=Open Door
TTITLE6=Trouble
TTITLE7=My 65
TTITLE8=Rollin'
TTITLE9=Leave Me Alone
TTITLE10=Rich Song
TTITLE11=Stuck On You
EXTD=
EXTT0=
EXTT1=
EXTT2=
EXTT3=
EXTT4=
EXTT5=
EXTT6=
EXTT7=
EXTT8=
EXTT9=
EXTT10=
EXTT11=
PLAYORDER=
